<svg width="24" height="24" viewBox="0 0 24 24" fill="none" xmlns="http://www.w3.org/2000/svg">
<path d="M15.9997 7.00053C15.9997 6.44825 16.4474 6.00053 16.9997 6.00053C17.552 6.00053 17.9997 6.44825 17.9997 7.00053C17.9997 7.55282 17.552 8.00053 16.9997 8.00053C16.4474 8.00053 15.9997 7.55282 15.9997 7.00053Z" fill="#151515"/>
<path fill-rule="evenodd" clip-rule="evenodd" d="M11.9997 7.25053C9.37634 7.25053 7.24969 9.37718 7.24969 12.0005C7.24969 14.6239 9.37634 16.7505 11.9997 16.7505C14.623 16.7505 16.7497 14.6239 16.7497 12.0005C16.7497 9.37718 14.623 7.25053 11.9997 7.25053ZM8.74969 12.0005C8.74969 10.2056 10.2048 8.75053 11.9997 8.75053C13.7946 8.75053 15.2497 10.2056 15.2497 12.0005C15.2497 13.7955 13.7946 15.2505 11.9997 15.2505C10.2048 15.2505 8.74969 13.7955 8.74969 12.0005Z" fill="#151515"/>
<path fill-rule="evenodd" clip-rule="evenodd" d="M17.2579 2.83355C13.7914 2.44611 10.208 2.44611 6.74146 2.83355C4.72941 3.05843 3.10507 4.64344 2.86852 6.66597C2.45398 10.2103 2.45398 13.7908 2.86852 17.3351C3.10507 19.3576 4.72941 20.9426 6.74146 21.1675C10.208 21.555 13.7914 21.555 17.2579 21.1675C19.27 20.9426 20.8943 19.3576 21.1309 17.3351C21.5454 13.7908 21.5454 10.2103 21.1309 6.66597C20.8943 4.64344 19.27 3.05843 17.2579 2.83355ZM6.90807 4.32427C10.2639 3.9492 13.7355 3.9492 17.0913 4.32427C18.4214 4.47293 19.4869 5.52254 19.641 6.84022C20.042 10.2687 20.042 13.7323 19.641 17.1609C19.4869 18.4785 18.4214 19.5281 17.0913 19.6768C13.7355 20.0519 10.2639 20.0519 6.90807 19.6768C5.57797 19.5281 4.51248 18.4785 4.35837 17.1609C3.95737 13.7323 3.95737 10.2687 4.35837 6.84022C4.51248 5.52254 5.57797 4.47293 6.90807 4.32427Z" fill="#151515"/>
</svg>
