<svg width="47" height="46" viewBox="0 0 47 46" fill="none" xmlns="http://www.w3.org/2000/svg">
<g clip-path="url(#clip0_977_32670)">
<path d="M24.4142 9.0474C24.2653 9.04902 24.1174 9.02127 23.9792 8.96574C23.8409 8.91022 23.715 8.82801 23.6085 8.7238C23.502 8.61959 23.4171 8.49543 23.3586 8.35841C23.3001 8.22138 23.2692 8.07417 23.2676 7.9252C23.2676 3.58315 26.8635 0.0667084 31.2912 0.0667084C31.4403 0.0646888 31.5883 0.0921579 31.7267 0.147537C31.8652 0.202915 31.9913 0.285112 32.0978 0.389399C32.2044 0.493687 32.2893 0.618009 32.3477 0.755218C32.406 0.892427 32.4367 1.03982 32.4379 1.18891C32.4379 5.53096 28.845 9.0474 24.4142 9.0474Z" fill="#1C1C1C"/>
<path d="M24.4133 9.0474C24.2643 9.04902 24.1164 9.02127 23.9782 8.96575C23.8399 8.91022 23.714 8.82801 23.6075 8.7238C23.501 8.61959 23.4161 8.49543 23.3576 8.35841C23.2991 8.22138 23.2682 8.07418 23.2666 7.9252C23.2666 3.58315 26.8625 0.0667084 31.2902 0.0667084C31.4393 0.0646888 31.5873 0.092158 31.7257 0.147537C31.8642 0.202915 31.9903 0.285112 32.0969 0.389399C32.2034 0.493687 32.2883 0.618009 32.3467 0.755218C32.405 0.892427 32.4357 1.03982 32.4369 1.18891C32.4369 5.53096 28.844 9.0474 24.4133 9.0474ZM41.1546 32.6871C41.598 33.0112 41.7417 33.6044 41.4909 34.0875C37.4547 41.995 34.2348 45.9334 31.2933 45.9334C29.9234 45.9334 28.5779 45.4992 27.2662 44.6552C26.3246 44.0507 25.2344 43.7183 24.1157 43.6945C22.9971 43.6708 21.8937 43.9567 20.9274 44.5207C19.3373 45.4533 17.8237 45.9334 16.3866 45.9334C12.0598 45.9334 4.91992 32.8858 4.91992 25.7276C4.91992 18.0831 9.01429 12.255 15.2399 12.255C18.1693 12.255 20.6981 12.677 22.8232 13.5362C23.7222 13.897 24.7404 13.8726 25.618 13.4598C27.3426 12.6464 29.6176 12.255 32.4369 12.255C35.883 12.255 38.8888 13.9368 41.3839 17.1933C41.4742 17.3108 41.5399 17.4451 41.5773 17.5884C41.6147 17.7317 41.623 17.8811 41.6016 18.0277C41.5802 18.1742 41.5296 18.315 41.4528 18.4417C41.3761 18.5683 41.2746 18.6783 41.1546 18.765C38.369 20.8137 37.0266 23.1101 37.0266 25.7276C37.0266 28.342 38.369 30.6414 41.1546 32.6871Z" fill="#1C1C1C"/>
<path d="M41.1546 32.687C41.598 33.0112 41.7417 33.6044 41.4909 34.0875C37.4547 41.9949 34.2348 45.9333 31.2933 45.9333C29.9234 45.9333 28.5779 45.4991 27.2662 44.6552C26.3246 44.0507 25.2344 43.7182 24.1157 43.6945C22.9971 43.6707 21.8937 43.9567 20.9274 44.5206C19.3373 45.4533 17.8237 45.9333 16.3866 45.9333C12.0598 45.9333 4.91992 32.8858 4.91992 25.7275C4.91992 18.0831 9.01429 12.255 15.2399 12.255C18.1693 12.255 20.6981 12.6769 22.8232 13.5362C23.7222 13.897 24.7404 13.8725 25.618 13.4597C27.3426 12.6464 29.6176 12.255 32.4369 12.255C35.883 12.255 38.8888 13.9368 41.3839 17.1933C41.4742 17.3107 41.5399 17.4451 41.5773 17.5884C41.6147 17.7317 41.623 17.8811 41.6016 18.0276C41.5802 18.1742 41.5296 18.315 41.4528 18.4416C41.3761 18.5683 41.2746 18.6782 41.1546 18.765C38.369 20.8137 37.0266 23.1101 37.0266 25.7275C37.0266 28.3419 38.369 30.6414 41.1546 32.687Z" fill="#1C1C1C"/>
</g>
<defs>
<clipPath id="clip0_977_32670">
<rect width="45.8667" height="45.8667" fill="white" transform="translate(0.333984 0.0666656)"/>
</clipPath>
</defs>
</svg>
