<svg width="20" height="15" viewBox="0 0 20 15" fill="none" xmlns="http://www.w3.org/2000/svg">
<path d="M18.3125 9.75C18.9434 9.75 19.5 10.3066 19.5 10.9375C19.5 11.6055 18.9434 12.125 18.3125 12.125H7.40234C6.91992 13.5352 5.58398 14.5 4.0625 14.5C2.05859 14.5 0.5 12.9043 0.5 10.9375C0.5 8.9707 2.05859 7.375 4.0625 7.375C5.58398 7.375 6.91992 8.37695 7.40234 9.75H18.3125ZM2.875 10.9375C2.875 11.6055 3.39453 12.125 4.0625 12.125C4.69336 12.125 5.25 11.6055 5.25 10.9375C5.25 10.3066 4.69336 9.75 4.0625 9.75C3.39453 9.75 2.875 10.3066 2.875 10.9375ZM12.5605 2.625C13.043 1.25195 14.3789 0.25 15.9375 0.25C17.9043 0.25 19.5 1.8457 19.5 3.8125C19.5 5.7793 17.9043 7.375 15.9375 7.375C14.3789 7.375 13.043 6.41016 12.5605 5H1.6875C1.01953 5 0.5 4.48047 0.5 3.8125C0.5 3.18164 1.01953 2.625 1.6875 2.625H12.5605ZM15.9375 5C16.5684 5 17.125 4.48047 17.125 3.8125C17.125 3.18164 16.5684 2.625 15.9375 2.625C15.2695 2.625 14.75 3.18164 14.75 3.8125C14.75 4.48047 15.2695 5 15.9375 5Z" fill="#EE5922"/>
</svg>
