<svg width="50" height="50" viewBox="0 0 50 50" fill="none" xmlns="http://www.w3.org/2000/svg">
<rect x="0.5" y="0.5" width="49" height="49" rx="7.5" fill="white"/>
<rect x="0.5" y="0.5" width="49" height="49" rx="7.5" stroke="#EE5922"/>
<path d="M33.3125 27.75C33.9434 27.75 34.5 28.3066 34.5 28.9375C34.5 29.6055 33.9434 30.125 33.3125 30.125H22.4023C21.9199 31.5352 20.584 32.5 19.0625 32.5C17.0586 32.5 15.5 30.9043 15.5 28.9375C15.5 26.9707 17.0586 25.375 19.0625 25.375C20.584 25.375 21.9199 26.377 22.4023 27.75H33.3125ZM17.875 28.9375C17.875 29.6055 18.3945 30.125 19.0625 30.125C19.6934 30.125 20.25 29.6055 20.25 28.9375C20.25 28.3066 19.6934 27.75 19.0625 27.75C18.3945 27.75 17.875 28.3066 17.875 28.9375ZM27.5605 20.625C28.043 19.252 29.3789 18.25 30.9375 18.25C32.9043 18.25 34.5 19.8457 34.5 21.8125C34.5 23.7793 32.9043 25.375 30.9375 25.375C29.3789 25.375 28.043 24.4102 27.5605 23H16.6875C16.0195 23 15.5 22.4805 15.5 21.8125C15.5 21.1816 16.0195 20.625 16.6875 20.625H27.5605ZM30.9375 23C31.5684 23 32.125 22.4805 32.125 21.8125C32.125 21.1816 31.5684 20.625 30.9375 20.625C30.2695 20.625 29.75 21.1816 29.75 21.8125C29.75 22.4805 30.2695 23 30.9375 23Z" fill="#EE5922"/>
</svg>
