<svg width="300" height="223" viewBox="0 0 300 223" fill="none" xmlns="http://www.w3.org/2000/svg">
<rect width="300" height="223" fill="white"/>
<path d="M144.331 190.664H69.4163C66.6531 190.664 64.2769 188.696 63.7563 185.964L36.6444 42.7816C35.977 39.2198 38.6868 35.9258 42.3044 35.9258H117.219C119.983 35.9258 122.359 37.8942 122.879 40.6258L150.005 183.808C150.672 187.37 147.949 190.664 144.331 190.664Z" fill="#F7F7F7"/>
<path d="M70.6174 191.201H69.4027C66.3858 191.201 63.7827 189.045 63.2221 186.072L36.1102 42.8895C35.7631 41.0416 36.2437 39.1402 37.4451 37.694C38.6465 36.2479 40.4086 35.4043 42.2908 35.4043H44.0795C44.3732 35.4043 44.6135 35.6453 44.6135 35.9399C44.6135 36.2345 44.3732 36.4755 44.0795 36.4755H42.2908C40.7289 36.4755 39.2605 37.1718 38.2727 38.3769C37.2715 39.5821 36.8711 41.1621 37.1647 42.702L64.29 185.885C64.7572 188.348 66.9198 190.143 69.416 190.143H70.6308C70.9245 190.143 71.1648 190.384 71.1648 190.678C71.1648 190.973 70.9245 191.201 70.6174 191.201Z" fill="#637080"/>
<path d="M74.6206 174.234L50.7258 46.8255H124.199L148.107 174.234H74.6206ZM157.531 183.822L130.406 40.6258C129.886 37.9075 127.509 35.9258 124.746 35.9258H49.8314C46.2271 35.9258 43.5039 39.2198 44.1714 42.7816L71.2966 185.964C71.8173 188.696 74.1934 190.664 76.9566 190.664H151.871C155.489 190.664 158.199 187.37 157.531 183.822Z" fill="white"/>
<path d="M148.949 92.5267C147.214 92.5267 145.532 92.2723 143.917 91.7501C143.636 91.6564 143.476 91.3618 143.57 91.0806C143.663 90.7994 143.957 90.6387 144.237 90.7324C147.815 91.884 151.819 91.6564 155.784 90.0897C159.468 88.6301 162.912 86.086 165.502 82.9125C168.239 79.5515 170.415 75.3336 172.15 70.0176C172.337 69.4284 172.51 68.4911 172.711 67.4065C173.378 63.7242 174.286 58.676 177.596 58.8501C177.89 58.8635 178.117 59.1179 178.104 59.4125C178.09 59.7071 177.837 59.9347 177.543 59.9213C177.516 59.9213 177.49 59.9213 177.45 59.9213C175.154 59.9213 174.313 64.5276 173.765 67.594C173.565 68.7188 173.391 69.6962 173.165 70.3524C171.389 75.7888 169.146 80.1273 166.33 83.582C163.633 86.9028 160.029 89.5541 156.171 91.0806C153.755 92.0447 151.312 92.5267 148.949 92.5267Z" fill="#637080"/>
<path d="M129.662 143.303C129.582 141.589 129.702 139.956 129.141 138.295C127.539 133.582 121.065 133.127 116.887 132.337C111.16 131.252 109.491 120.218 103.671 120.044C102.817 120.018 94.1668 118.866 93.3925 119.241C92.5515 119.656 91.9108 128.052 91.7506 131.935C91.6304 135.001 90.5759 150.092 89.8817 153.078C89.1609 156.212 88.1063 159.265 86.7714 162.17C84.8224 166.415 82.2594 170.379 79.1758 173.9H104.179C105.246 173.124 106.314 172.334 107.356 171.517C115.619 165.089 122.28 157.939 127.7 148.686C127.993 148.177 128.38 147.736 128.714 147.267C128.888 147.013 129.048 146.785 129.261 146.571C130.209 145.647 129.715 144.442 129.662 143.303Z" fill="#DEE0E8"/>
<path d="M80.4971 172.868C80.3769 172.868 80.2568 172.828 80.1633 172.748C79.9364 172.56 79.8963 172.225 80.0832 171.998C82.5528 168.931 84.6353 165.557 86.2905 161.955C87.6121 159.063 88.6533 156.037 89.3608 152.957C90.0416 150.038 91.0828 135.121 91.2163 131.907L91.2297 131.492C91.2564 130.769 91.2964 129.778 91.3498 129.001C91.3632 128.707 91.6168 128.479 91.9105 128.506C92.2042 128.519 92.4311 128.774 92.4044 129.068C92.351 129.832 92.311 130.809 92.2843 131.532L92.2709 131.947C92.1374 135.174 91.0828 150.212 90.3887 153.198C89.6545 156.345 88.5999 159.438 87.2383 162.397C85.5563 166.079 83.4205 169.534 80.8975 172.667C80.8041 172.801 80.6572 172.868 80.4971 172.868Z" fill="#637080"/>
<path d="M106.1 173.017C105.94 173.017 105.78 172.95 105.673 172.803C105.5 172.562 105.54 172.227 105.78 172.053C106.207 171.732 106.621 171.41 107.035 171.089C113.829 165.8 119.302 160.149 123.761 153.816C123.935 153.575 124.268 153.521 124.509 153.682C124.749 153.856 124.802 154.191 124.642 154.432C120.117 160.859 114.577 166.577 107.689 171.933C107.275 172.254 106.848 172.575 106.421 172.897C106.327 172.991 106.22 173.017 106.1 173.017Z" fill="#637080"/>
<path d="M152.034 199.461C146.975 198.163 147.843 188.937 147.696 184.692C147.416 175.868 146.014 168.329 139.166 161.821C131.183 154.229 121.532 151.136 112.615 145.753C109.478 143.851 111.413 132.523 111.026 128.801C110.011 118.905 127.659 114.928 134.654 117.392C140.514 119.454 145.266 123.9 149.391 128.667C155.385 135.59 162.927 142.379 164.836 151.819C166.598 160.522 164.129 169.869 161.752 178.238C160.631 182.134 154.063 199.984 152.034 199.461Z" fill="#DEE0E8"/>
<path d="M152.128 200.011C152.048 200.011 151.968 199.998 151.888 199.984C147.162 198.766 147.162 191.562 147.176 186.781C147.176 186.018 147.176 185.308 147.162 184.706C146.869 175.694 145.334 168.41 138.806 162.197C134.12 157.751 128.38 154.886 122.814 152.101C118.982 150.186 115.352 148.378 112.308 146.169C112.068 145.995 112.014 145.66 112.188 145.419C112.361 145.178 112.695 145.124 112.935 145.298C115.912 147.467 119.49 149.248 123.281 151.136C128.914 153.948 134.734 156.854 139.54 161.407C146.335 167.874 147.937 175.373 148.23 184.652C148.257 185.268 148.244 185.991 148.244 186.768C148.244 191.187 148.23 197.869 152.115 198.913C152.315 198.833 153.543 198.029 156.92 189.834C158.936 184.96 160.712 179.859 161.219 178.064C163.795 169.012 165.971 160.188 164.289 151.9C162.741 144.227 157.374 138.308 152.182 132.577C151.514 131.841 150.82 131.078 150.166 130.341C149.966 130.127 149.992 129.779 150.206 129.578C150.419 129.377 150.767 129.404 150.953 129.618C151.621 130.355 152.302 131.118 152.969 131.854C158.282 137.706 163.755 143.732 165.357 151.699C167.079 160.228 164.877 169.187 162.26 178.372C161.726 180.247 159.804 185.724 157.735 190.705C154.464 198.565 153.049 200.011 152.128 200.011Z" fill="#637080"/>
<path d="M148.938 128.533C148.938 128.533 150.607 111.139 140.315 78.9759C139.38 76.0434 138.232 73.1913 137.311 70.2454C135.696 65.0768 136.55 56.4936 135.869 51.1107C135.162 45.4198 132.666 31.0654 121.506 31.6813C108.17 32.4178 108.864 49.8654 109.492 59.4662C109.638 61.6756 109.812 63.8984 109.799 66.1212C109.785 67.3933 110.119 69.8705 109.331 70.9417C100.668 82.5779 92.1245 106.774 91.2969 126.337C91.3102 126.351 133.92 136.487 148.938 128.533Z" fill="white"/>
<path d="M103.949 48.8078C104.79 51.9009 109.102 53.6551 112.679 52.3696C116.244 51.0841 118.273 47.0269 116.751 44.1881C117.926 45.42 119.968 45.9958 121.89 45.6209C123.813 45.246 125.561 43.9605 126.296 42.3537C127.297 44.4291 130.1 45.6209 132.77 45.1121C135.44 44.5898 137.709 42.4072 137.989 40.0907C138.283 37.7608 136.561 35.5246 134.025 34.922C136.454 34.3462 138.203 32.0029 138.003 29.9007C137.802 27.7984 135.853 26.0978 133.491 25.6693C131.128 25.2408 128.458 25.9773 126.456 27.3699C126.562 24.9998 124.213 22.9377 121.463 22.9913C118.727 23.0448 116.043 25.2007 115.79 27.5841C113.921 26.138 110.717 26.138 108.555 27.5841C106.392 29.0303 105.498 31.7485 106.539 33.7437C103.749 33.6499 100.906 35.7924 100.572 38.216C100.238 40.6397 102.494 42.9027 105.284 42.9562C103.402 44.7371 103.095 46.6787 103.949 48.8078Z" fill="#EE5922"/>
<path d="M128.594 78.5608C124.015 78.5608 117.888 77.2619 109.946 73.2046C109.679 73.0707 109.572 72.7494 109.719 72.4816C109.852 72.2138 110.172 72.1066 110.439 72.2539C116.567 75.3873 122.16 77.128 127.086 77.436C132.011 77.744 135.229 76.5254 137.057 75.4542C137.311 75.3069 137.645 75.3873 137.792 75.6417C137.938 75.8961 137.858 76.2309 137.605 76.3782C135.803 77.436 132.866 78.5608 128.594 78.5608Z" fill="#637080"/>
<path d="M131.102 58.9983C130.715 58.9983 130.341 58.8912 130.021 58.6636C129.207 58.1012 128.686 56.8961 128.419 54.9679C128.379 54.6733 128.579 54.4055 128.873 54.3653C129.167 54.3251 129.434 54.526 129.474 54.8206C129.754 56.8023 130.248 57.5254 130.622 57.7798C130.835 57.9271 131.076 57.9673 131.369 57.9003C131.623 57.8468 131.81 57.6995 131.957 57.4451C132.464 56.5747 132.264 54.7134 131.957 53.6824C131.877 53.4012 132.037 53.1066 132.317 53.0129C132.597 52.9325 132.891 53.0932 132.985 53.3744C133.278 54.3921 133.652 56.6684 132.878 57.9807C132.584 58.4895 132.144 58.8109 131.61 58.9448C131.436 58.9716 131.276 58.9983 131.102 58.9983Z" fill="#637080"/>
<path d="M91.8688 125.937C93.9779 126.419 103.616 128.561 114.576 129.9C130.621 131.869 142.315 131.279 148.442 128.2C148.509 127.102 148.696 122.87 147.961 115.827C147.174 108.221 145.118 95.688 139.819 79.1509C139.378 77.7583 138.871 76.3657 138.39 75.0133C137.856 73.5136 137.296 71.9737 136.815 70.4338C135.8 67.1666 135.734 62.6942 135.68 58.3825C135.64 55.7447 135.614 53.2541 135.36 51.2187C134.759 46.3848 133.678 42.3677 132.156 39.3147C129.7 34.3871 126.136 32.017 121.557 32.2714C118.433 32.4455 115.91 33.5971 114.055 35.7127C108.875 41.5911 109.676 53.6825 110.05 59.4939C110.077 59.8019 110.09 60.1099 110.117 60.4179C110.25 62.3059 110.384 64.2609 110.357 66.1891C110.357 66.4569 110.371 66.7783 110.384 67.1264C110.437 68.5592 110.517 70.3267 109.783 71.3176C105.552 77.0085 101.226 85.9666 97.9026 95.8888C94.4318 106.213 92.296 116.871 91.8688 125.937ZM131.289 132.136C126.403 132.136 120.783 131.748 114.429 130.971C102.014 129.445 91.2948 126.914 91.188 126.887C90.9343 126.834 90.7608 126.606 90.7742 126.352C91.1613 117.099 93.3238 106.159 96.8747 95.5407C100.225 85.5113 104.617 76.4461 108.902 70.6615C109.409 69.9786 109.343 68.3449 109.289 67.1532C109.276 66.7917 109.263 66.4435 109.263 66.1623C109.276 64.2743 109.142 62.3461 109.022 60.4714C108.996 60.1635 108.982 59.8555 108.956 59.5475C108.568 53.5888 107.741 41.2028 113.227 34.9897C115.283 32.6598 118.06 31.3877 121.477 31.1868C126.51 30.9056 130.421 33.4766 133.091 38.8193C134.679 41.9928 135.787 46.117 136.401 51.0714C136.668 53.1603 136.695 55.6911 136.735 58.3558C136.788 62.6005 136.855 66.9925 137.816 70.0991C138.297 71.6256 138.844 73.1521 139.378 74.6384C139.872 76.0042 140.379 77.4102 140.82 78.8162C143.757 88.0019 147.561 101.874 149.003 115.76C149.87 124.089 149.47 128.401 149.457 128.588C149.443 128.762 149.336 128.923 149.176 129.016C145.265 131.092 139.271 132.136 131.289 132.136Z" fill="#637080"/>
<path d="M145.411 108.717C141.794 108.717 138.256 107.9 134.505 106.213C128.765 103.642 123.692 99.397 118.993 93.224C118.82 92.983 118.86 92.6483 119.1 92.4742C119.34 92.3001 119.674 92.3403 119.848 92.5813C124.44 98.6069 129.379 102.745 134.945 105.249C145.852 110.136 153.541 106.735 163.272 102.437C164.447 101.914 165.782 101.325 167.25 101.205C169.346 101.031 170.761 101.928 171.335 102.745C171.509 102.986 171.442 103.32 171.201 103.494C170.961 103.668 170.627 103.602 170.454 103.361C169.933 102.611 168.652 102.169 167.33 102.276C166.035 102.383 164.847 102.905 163.699 103.414C158.88 105.543 154.328 107.565 149.683 108.355C148.241 108.596 146.813 108.717 145.411 108.717Z" fill="#637080"/>
<path d="M145.226 191.201H76.959C73.9421 191.201 71.3391 189.045 70.7784 186.072L43.6531 42.8895C43.3061 41.0416 43.7866 39.1402 44.988 37.694C46.1895 36.2479 47.9515 35.4043 49.8337 35.4043H99.5322C99.8259 35.4043 100.066 35.6453 100.066 35.9399C100.066 36.2345 99.8259 36.4755 99.5322 36.4755H49.8337C48.2719 36.4755 46.8035 37.1718 45.8157 38.3769C44.8145 39.5821 44.414 41.1621 44.7077 42.702L71.833 185.885C72.3002 188.348 74.4627 190.143 76.959 190.143H145.226C145.52 190.143 145.76 190.384 145.76 190.678C145.76 190.973 145.52 191.201 145.226 191.201Z" fill="#637080"/>
<path d="M100.855 47.3622H50.7293C50.4356 47.3622 50.1953 47.1212 50.1953 46.8266C50.1953 46.532 50.4356 46.291 50.7293 46.291H100.855C101.149 46.291 101.389 46.532 101.389 46.8266C101.389 47.1212 101.149 47.3622 100.855 47.3622Z" fill="#637080"/>
<path d="M89.8683 42.2724H80.0301C79.7364 42.2724 79.4961 42.0314 79.4961 41.7368C79.4961 41.4422 79.7364 41.2012 80.0301 41.2012H89.8683C90.162 41.2012 90.4023 41.4422 90.4023 41.7368C90.4023 42.0314 90.162 42.2724 89.8683 42.2724Z" fill="#637080"/>
<path d="M143.078 174.77H74.6238C74.3301 174.77 74.0898 174.529 74.0898 174.235C74.0898 173.94 74.3301 173.699 74.6238 173.699H143.064C143.358 173.699 143.598 173.94 143.598 174.235C143.598 174.529 143.371 174.77 143.078 174.77Z" fill="#637080"/>
<path d="M111.039 178.747C109.13 178.747 107.568 180.313 107.568 182.228C107.568 184.156 109.13 185.723 111.039 185.723H119.235C121.144 185.723 122.706 184.156 122.706 182.242C122.706 180.313 121.144 178.747 119.235 178.747H111.039ZM119.235 186.781H111.039C108.542 186.781 106.5 184.746 106.5 182.228C106.5 179.711 108.529 177.662 111.039 177.662H119.235C121.731 177.662 123.774 179.697 123.774 182.215C123.774 184.746 121.731 186.781 119.235 186.781Z" fill="#637080"/>
<path d="M247.253 170.432H195.352L183.805 121.049L263.472 133.14L259.307 160.068C258.372 166.027 253.26 170.432 247.253 170.432Z" fill="white"/>
<path d="M236.293 191.897C236.293 188.871 238.736 186.434 241.739 186.434C244.756 186.434 247.186 188.884 247.186 191.897C247.186 194.923 244.743 197.373 241.739 197.373C238.736 197.373 236.293 194.923 236.293 191.897Z" fill="#DEE0E8"/>
<path d="M200.973 191.897C200.973 188.871 203.416 186.434 206.419 186.434C209.436 186.434 211.865 188.884 211.865 191.897C211.865 194.923 209.423 197.373 206.419 197.373C203.416 197.373 200.973 194.923 200.973 191.897Z" fill="#DEE0E8"/>
<path d="M255.82 117.849C255.58 119.737 252.91 140.854 253.765 140.921C249.293 140.586 244.807 140.251 240.376 139.568C238.493 139.274 236.624 138.925 234.729 138.725C232.353 138.457 229.963 138.43 227.587 138.176C223.315 137.707 219.151 136.542 214.999 135.39C214.625 128.588 214.599 121.772 214.959 114.97C215.039 113.497 217.202 97.6564 217.469 95.7014C217.482 95.5943 217.589 95.5274 217.696 95.5408C219.551 95.9291 221.433 96.1969 223.329 96.371C225.425 96.5584 255.593 98.4866 257.703 99.0758C257.703 99.0758 257.342 106.494 257.129 108.047C256.661 111.301 256.234 114.568 255.82 117.849Z" fill="#F7E200"/>
<path d="M244.543 102.396C244.517 102.396 244.477 102.396 244.437 102.383C244.143 102.329 243.956 102.048 244.009 101.753C244.397 99.7047 244.61 97.6693 244.65 95.701V95.4064C244.704 92.5542 244.77 89.3406 243.088 86.9437C242.514 86.1269 241.767 85.5377 240.966 85.2967C237.922 84.346 235.626 88.2827 235.199 89.0861C233.597 92.0588 233.344 95.9822 233.13 99.4369C233.09 99.9591 233.063 100.481 233.023 100.977C232.996 101.271 232.743 101.499 232.449 101.472C232.155 101.445 231.929 101.191 231.955 100.896C231.995 100.401 232.022 99.8787 232.062 99.3565C232.289 95.7947 232.556 91.7508 234.265 88.5639C235.706 85.8859 238.309 83.3417 241.286 84.2656C242.301 84.587 243.262 85.3101 243.969 86.3143C245.838 88.9924 245.772 92.3935 245.718 95.4064L245.705 95.701C245.665 97.7229 245.451 99.8252 245.051 101.927C245.024 102.222 244.797 102.396 244.543 102.396Z" fill="#637080"/>
<path d="M262.469 120.272C261.428 129.859 259.145 141.977 257.77 151.538C257.423 153.962 257.036 156.372 256.582 158.782C254.62 169.28 251.99 167.754 247.732 168.048C242.539 168.41 240.003 167.834 234.81 167.513C234.703 167.499 241.765 117.58 241.765 117.58C241.765 117.58 257.436 119.763 262.469 120.272Z" fill="#3698D4"/>
<path d="M257.386 122.039C257.319 122.039 257.252 122.026 257.199 121.999C256.918 121.892 256.785 121.584 256.892 121.302C256.972 121.075 257.065 120.847 257.159 120.606C258.494 117.098 260.162 112.733 257.96 109.506C257.586 108.957 257.065 108.582 256.531 108.475C255.65 108.3 254.796 108.836 254.289 109.385C253.541 110.175 251.098 113.282 250.791 120.03C250.778 120.325 250.524 120.553 250.23 120.539C249.937 120.526 249.71 120.271 249.723 119.977C249.803 118.182 250.311 112.05 253.501 108.649C254.409 107.684 255.637 107.216 256.718 107.43C257.532 107.591 258.307 108.126 258.841 108.903C261.35 112.599 259.575 117.259 258.146 120.994C258.053 121.235 257.973 121.463 257.879 121.691C257.799 121.905 257.599 122.039 257.386 122.039Z" fill="#637080"/>
<path d="M197.315 167.058C208.675 167.326 226.229 167.125 226.229 167.125C226.015 166.161 225.815 163.376 225.588 162.425C224.467 157.511 223.693 152.53 223.079 147.522C222.224 140.465 221.704 133.368 221.049 126.285C220.889 124.517 219.408 105.637 219.408 105.637C208.114 105.851 196.888 108.475 185.621 107.618C192.816 147.334 197.155 166.522 197.315 167.058Z" fill="#E32967"/>
<path d="M196.688 111.876C196.487 111.876 196.287 111.755 196.207 111.568C194.752 108.381 193.871 105.006 193.604 101.511C193.47 99.7573 193.47 97.5211 194.765 95.8205C196.047 94.1334 198.516 93.3567 200.772 93.9325C202.721 94.4279 204.483 95.8071 205.738 97.8157C206.94 99.7171 207.527 101.927 207.914 103.64C208.421 105.917 208.755 108.247 208.902 110.563C208.929 110.858 208.702 111.112 208.408 111.139C208.114 111.152 207.861 110.938 207.847 110.644C207.7 108.381 207.367 106.104 206.873 103.881C206.512 102.261 205.952 100.159 204.844 98.3915C203.722 96.6239 202.187 95.4054 200.519 94.9769C198.663 94.5083 196.647 95.1242 195.62 96.4767C194.552 97.896 194.552 99.8778 194.672 101.444C194.925 104.805 195.78 108.073 197.181 111.139C197.302 111.407 197.181 111.728 196.914 111.849C196.834 111.862 196.754 111.876 196.688 111.876Z" fill="#637080"/>
<path d="M242.126 137.908C240.444 137.252 238.588 136.984 236.759 136.783C233.449 136.421 230.125 136.247 226.788 136.274C223.664 136.301 220.327 136.341 217.243 136.863C215.521 142.273 214.56 148.071 213.986 153.655C213.452 158.73 213.532 163.805 213.398 168.893C215.815 168.839 218.244 168.772 220.66 168.719C223.036 168.652 237.32 168.853 241.712 168.049C241.752 167.835 242.486 138.055 242.126 137.908Z" fill="white"/>
<path d="M233.77 140.934C233.73 140.934 233.69 140.934 233.65 140.92C233.357 140.853 233.183 140.572 233.25 140.277C234.318 135.591 233.063 133.609 232.476 132.966C231.795 132.23 230.927 132.056 230.326 132.042C229.178 132.029 227.964 132.551 227.083 133.435C225.587 134.948 224.84 137.492 225.12 140.09C225.147 140.385 224.947 140.652 224.653 140.679C224.359 140.706 224.092 140.505 224.066 140.211C223.745 137.305 224.613 134.426 226.322 132.699C227.403 131.601 228.898 130.971 230.34 130.985C231.501 131.011 232.516 131.44 233.25 132.243C235.359 134.533 234.678 138.791 234.278 140.518C234.224 140.773 234.011 140.934 233.77 140.934Z" fill="#637080"/>
<path d="M195.886 169.83L246.906 169.897C249.789 169.897 252.566 168.866 254.755 166.978C256.945 165.103 258.386 162.492 258.827 159.64L262.858 133.583L184.499 121.692L195.886 169.83ZM246.906 170.968L195.472 170.901C195.219 170.901 195.005 170.727 194.952 170.486L183.285 121.17C183.245 120.996 183.285 120.808 183.405 120.688C183.525 120.554 183.698 120.5 183.885 120.514L263.552 132.605C263.686 132.632 263.819 132.699 263.899 132.819C263.98 132.94 264.02 133.074 263.993 133.221L259.881 159.801C259.401 162.907 257.826 165.746 255.449 167.782C253.073 169.844 250.03 170.968 246.906 170.968Z" fill="#637080"/>
<path d="M242.247 186.969L206.725 186.781C202.066 186.755 198.048 183.568 196.967 179.015L181.282 113.027C180.828 111.126 179.8 109.452 178.305 108.194C176.81 106.935 174.995 106.212 173.046 106.091L168.227 105.81C167.933 105.797 167.706 105.542 167.719 105.248C167.733 104.953 167.986 104.725 168.28 104.739L173.099 105.02C175.275 105.154 177.317 105.957 178.986 107.363C180.655 108.769 181.816 110.644 182.323 112.773L198.008 178.761C198.969 182.831 202.56 185.683 206.725 185.71L242.247 185.898C242.541 185.898 242.781 186.139 242.781 186.433C242.781 186.728 242.541 186.969 242.247 186.969Z" fill="#637080"/>
<path d="M213.197 170.967C212.93 170.967 212.703 170.766 212.663 170.499L207.017 124.73C206.977 124.436 207.19 124.168 207.484 124.128C207.777 124.088 208.044 124.302 208.084 124.597L213.731 170.365C213.771 170.659 213.558 170.927 213.264 170.967C213.251 170.967 213.224 170.967 213.197 170.967Z" fill="#637080"/>
<path d="M235.679 170.968C235.666 170.968 235.652 170.968 235.639 170.968C235.345 170.941 235.132 170.687 235.145 170.392L238.603 129.418C238.629 129.123 238.883 128.909 239.177 128.936C239.47 128.963 239.684 129.217 239.657 129.512L236.2 170.486C236.186 170.754 235.959 170.968 235.679 170.968Z" fill="#637080"/>
<path d="M258.758 151.659C258.744 151.659 258.731 151.659 258.731 151.659L190.918 147.535C190.624 147.521 190.397 147.267 190.411 146.972C190.424 146.678 190.678 146.45 190.971 146.463L258.785 150.588C259.078 150.601 259.305 150.855 259.292 151.15C259.278 151.445 259.038 151.659 258.758 151.659Z" fill="#637080"/>
</svg>
