<svg width="56" height="56" viewBox="0 0 56 56" fill="none" xmlns="http://www.w3.org/2000/svg">
<rect x="-0.00744629" y="0.466797" width="55.7308" height="55.0673" rx="17.6923" fill="#1B1B1B"/>
<path d="M12.0435 17.274H9.94256L9.05795 16.5C9.41179 11.9 14.5868 9.79167 17.1301 9.3125H25.8656C31.9695 9.93173 34.4538 15.2468 34.9329 17.8269V19.375H31.2839C31.4608 14.6865 28.0403 13.1458 26.3079 12.9615H17.5724C15.007 12.7846 12.8176 15.7628 12.0435 17.274Z" fill="white"/>
<path d="M20.7791 23.9086L23.9858 20.9231L18.1252 20.8125L17.5724 21.476V23.3558L18.1252 23.9086H20.7791Z" fill="white"/>
<path d="M34.9329 25.5673H31.2839C31.2839 29.8135 28.114 31.4647 26.5291 31.7596H17.2406C14.056 31.1404 12.449 28.7003 12.0435 27.5577H9.50025L8.83679 28.2211C10.0753 33.6173 14.5131 35.1138 16.5772 35.1875H26.8608C33.5839 34.7452 35.0435 28.5897 34.9329 25.5673Z" fill="white"/>
<path d="M12.0435 17.274H9.94256L9.05795 16.5C9.41179 11.9 14.5868 9.79167 17.1301 9.3125H25.8656C31.9695 9.93173 34.4538 15.2468 34.9329 17.8269V19.375H31.2839C31.4608 14.6865 28.0403 13.1458 26.3079 12.9615H17.5724C15.007 12.7846 12.8176 15.7628 12.0435 17.274Z" stroke="#1B1B1B" stroke-width="0.221154"/>
<path d="M20.7791 23.9086L23.9858 20.9231L18.1252 20.8125L17.5724 21.476V23.3558L18.1252 23.9086H20.7791Z" stroke="#1B1B1B" stroke-width="0.221154"/>
<path d="M34.9329 25.5673H31.2839C31.2839 29.8135 28.114 31.4647 26.5291 31.7596H17.2406C14.056 31.1404 12.449 28.7003 12.0435 27.5577H9.50025L8.83679 28.2211C10.0753 33.6173 14.5131 35.1138 16.5772 35.1875H26.8608C33.5839 34.7452 35.0435 28.5897 34.9329 25.5673Z" stroke="#1B1B1B" stroke-width="0.221154"/>
<path d="M45.5487 28.5529H42.6737C41.5237 25.5452 38.8035 24.4247 37.5871 24.2404H28.8515C25.6669 24.7712 24.0599 27.7788 23.6544 29.2163V30.7644H20.2265V28.6635C21.0227 23.0019 25.7185 21.0705 27.9669 20.8125H38.2506C43.0275 21.6087 45.4749 25.7147 46.1015 27.6683L45.5487 28.5529Z" fill="#EE5922"/>
<path d="M23.6544 36.625H20.116V38.9471C21.4429 44.7856 26.124 46.6138 28.2987 46.7981H38.14C43.2708 46.2673 45.4381 42.2276 45.8804 40.274V39.7211L45.2169 39.0577H42.7842C40.8381 42.5077 38.8035 43.2965 38.0294 43.2596H28.741C25.2025 42.6404 23.8756 39.758 23.6544 38.3942V36.625Z" fill="#EE5922"/>
<path d="M45.5487 28.5529H42.6737C41.5237 25.5452 38.8035 24.4247 37.5871 24.2404H28.8515C25.6669 24.7712 24.0599 27.7788 23.6544 29.2163V30.7644H20.2265V28.6635C21.0227 23.0019 25.7185 21.0705 27.9669 20.8125H38.2506C43.0275 21.6087 45.4749 25.7147 46.1015 27.6683L45.5487 28.5529Z" stroke="#1B1B1B" stroke-width="0.221154"/>
<path d="M23.6544 36.625H20.116V38.9471C21.4429 44.7856 26.124 46.6138 28.2987 46.7981H38.14C43.2708 46.2673 45.4381 42.2276 45.8804 40.274V39.7211L45.2169 39.0577H42.7842C40.8381 42.5077 38.8035 43.2965 38.0294 43.2596H28.741C25.2025 42.6404 23.8756 39.758 23.6544 38.3942V36.625Z" stroke="#1B1B1B" stroke-width="0.221154"/>
</svg>
