<svg width="33" height="36" viewBox="0 0 33 36" fill="none" xmlns="http://www.w3.org/2000/svg">
<g filter="url(#filter0_ii_5548_3762)">
<path d="M1.1694 1.17668C0.770311 1.59248 0.534423 2.23778 0.534423 3.07343V32.93C0.534423 33.767 0.770311 34.411 1.1694 34.8268L1.27088 34.924L18.2615 18.1988V18.0017V17.8046L1.27088 1.07813L1.1694 1.17668Z" fill="url(#paint0_linear_5548_3762)"/>
<path d="M23.9241 23.776L18.2615 18.1992V18.0021V17.805L23.9255 12.2295L24.053 12.301L30.7634 16.054C32.6793 17.1259 32.6793 18.8796 30.7634 19.9528L24.053 23.7058L23.9241 23.776Z" fill="url(#paint1_linear_5548_3762)"/>
<g filter="url(#filter1_i_5548_3762)">
<path d="M24.0531 23.7044L18.2602 18.002L1.16943 34.827C1.80029 35.4858 2.84395 35.5668 4.01926 34.9107L24.0531 23.7044Z" fill="url(#paint2_linear_5548_3762)"/>
</g>
<path d="M24.0531 12.2993L4.01926 1.09433C2.84395 0.436877 1.80029 0.519227 1.16943 1.17803L18.2615 18.0031L24.0531 12.2993Z" fill="url(#paint3_linear_5548_3762)"/>
</g>
<defs>
<filter id="filter0_ii_5548_3762" x="0.534424" y="0.640625" width="31.6659" height="34.7236" filterUnits="userSpaceOnUse" color-interpolation-filters="sRGB">
<feFlood flood-opacity="0" result="BackgroundImageFix"/>
<feBlend mode="normal" in="SourceGraphic" in2="BackgroundImageFix" result="shape"/>
<feColorMatrix in="SourceAlpha" type="matrix" values="0 0 0 0 0 0 0 0 0 0 0 0 0 0 0 0 0 0 127 0" result="hardAlpha"/>
<feOffset dy="-0.15"/>
<feComposite in2="hardAlpha" operator="arithmetic" k2="-1" k3="1"/>
<feColorMatrix type="matrix" values="0 0 0 0 0 0 0 0 0 0 0 0 0 0 0 0 0 0 0.12 0"/>
<feBlend mode="normal" in2="shape" result="effect1_innerShadow_5548_3762"/>
<feColorMatrix in="SourceAlpha" type="matrix" values="0 0 0 0 0 0 0 0 0 0 0 0 0 0 0 0 0 0 127 0" result="hardAlpha"/>
<feOffset dy="0.15"/>
<feComposite in2="hardAlpha" operator="arithmetic" k2="-1" k3="1"/>
<feColorMatrix type="matrix" values="0 0 0 0 1 0 0 0 0 1 0 0 0 0 1 0 0 0 0.25 0"/>
<feBlend mode="normal" in2="effect1_innerShadow_5548_3762" result="effect2_innerShadow_5548_3762"/>
</filter>
<filter id="filter1_i_5548_3762" x="1.16943" y="18.002" width="22.8837" height="17.3623" filterUnits="userSpaceOnUse" color-interpolation-filters="sRGB">
<feFlood flood-opacity="0" result="BackgroundImageFix"/>
<feBlend mode="normal" in="SourceGraphic" in2="BackgroundImageFix" result="shape"/>
<feColorMatrix in="SourceAlpha" type="matrix" values="0 0 0 0 0 0 0 0 0 0 0 0 0 0 0 0 0 0 127 0" result="hardAlpha"/>
<feOffset dy="-0.15"/>
<feComposite in2="hardAlpha" operator="arithmetic" k2="-1" k3="1"/>
<feColorMatrix type="matrix" values="0 0 0 0 0 0 0 0 0 0 0 0 0 0 0 0 0 0 0.08 0"/>
<feBlend mode="normal" in2="shape" result="effect1_innerShadow_5548_3762"/>
</filter>
<linearGradient id="paint0_linear_5548_3762" x1="16.7554" y1="2.75752" x2="-5.89748" y2="25.77" gradientUnits="userSpaceOnUse">
<stop stop-color="#00A0FF"/>
<stop offset="0.0066" stop-color="#00A1FF"/>
<stop offset="0.2601" stop-color="#00BEFF"/>
<stop offset="0.5122" stop-color="#00D2FF"/>
<stop offset="0.7604" stop-color="#00DFFF"/>
<stop offset="1" stop-color="#00E3FF"/>
</linearGradient>
<linearGradient id="paint1_linear_5548_3762" x1="33.2574" y1="18.0021" x2="0.0744111" y2="18.0021" gradientUnits="userSpaceOnUse">
<stop stop-color="#FFE000"/>
<stop offset="0.4087" stop-color="#FFBD00"/>
<stop offset="0.7754" stop-color="#FFA500"/>
<stop offset="1" stop-color="#FF9C00"/>
</linearGradient>
<linearGradient id="paint2_linear_5548_3762" x1="20.9072" y1="21.0987" x2="-9.81299" y2="52.3065" gradientUnits="userSpaceOnUse">
<stop stop-color="#FF3A44"/>
<stop offset="1" stop-color="#C31162"/>
</linearGradient>
<linearGradient id="paint3_linear_5548_3762" x1="-3.13493" y1="-8.76094" x2="10.5825" y2="5.1742" gradientUnits="userSpaceOnUse">
<stop stop-color="#32A071"/>
<stop offset="0.0685" stop-color="#2DA771"/>
<stop offset="0.4762" stop-color="#15CF74"/>
<stop offset="0.8009" stop-color="#06E775"/>
<stop offset="1" stop-color="#00F076"/>
</linearGradient>
</defs>
</svg>
